<svg xmlns="http://www.w3.org/2000/svg" data-name="Layer 1" viewBox="0 0 32 32"><path fill="#ed4769" d="M16,32A16,16,0,1,1,32,16,16,16,0,0,1,16,32Z"/><path fill="#e1e1e3" d="M16,27.5A11.5,11.5,0,1,1,27.5,16,11.51,11.51,0,0,1,16,27.5Z"/><path fill="#ed4769" d="M19.39,16.5a3,3,0,1,1,3-3A3,3,0,0,1,19.39,16.5Zm0-5a2,2,0,1,0,2,2A2,2,0,0,0,19.39,11.5Z"/><path fill="#ed4769" d="M19.39,21.5a3,3,0,1,1,3-3A3,3,0,0,1,19.39,21.5Zm0-5a2,2,0,1,0,2,2A2,2,0,0,0,19.39,16.5Z"/><rect width="5" height="1" x="10.39" y="20.5" fill="#ed4769"/><polygon fill="#ed4769" points="12.89 21.5 12.39 21.5 12.39 11.93 10.17 13.42 9.61 12.58 13.39 10.07 13.39 21.5 12.89 21.5"/><rect width="1" height="5" x="22" y="4" fill="#ed4769"/><rect width="5" height="1" x="20" y="6" fill="#ed4769"/><path d="M22,9h1V7h2V6H23V4H22V6H20V7h2ZM10.39,20.5v1h5v-1h-2V10.07L9.61,12.58l.56.84,2.22-1.49V20.5Zm6-7A3,3,0,0,0,17.74,16,3,3,0,1,0,21,16a3,3,0,1,0-4.65-2.5Zm5,5a2,2,0,1,1-2-2A2,2,0,0,1,21.39,18.5Zm-2-7a2,2,0,1,1-2,2A2,2,0,0,1,19.39,11.5ZM16,0A16,16,0,1,0,32,16,16,16,0,0,0,16,0Zm0,31A15,15,0,1,1,31,16,15,15,0,0,1,16,31ZM25.52,8.69l-.79.61a11,11,0,1,1-6.29-4l.22-1A11.79,11.79,0,0,0,16,4a12,12,0,1,0,9.52,4.69Z"/></svg>